<svg xmlns="http://www.w3.org/2000/svg" viewBox="0 0 75.98 99.14"><defs><style>.cls-1{fill:#fff;}</style></defs><title>award</title><g id="Calque_2" data-name="Calque 2"><g id="Calque_1-2" data-name="Calque 1"><path class="cls-1" d="M26.77,75.32a5.58,5.58,0,0,0-.91.07,11.79,11.79,0,0,1-12.68-6.92,5.9,5.9,0,0,0-1.29-1.83l-.12.4L4,92.89l12.34-3.64,8.27,9.89L31,77.78l.17-.57a11.15,11.15,0,0,1-.92-.66,5.66,5.66,0,0,0-3.51-1.23"/><path class="cls-1" d="M57.65,74.11a11.76,11.76,0,0,1-8.48,1.6,6.32,6.32,0,0,0-1.06-.09,5.68,5.68,0,0,0-3.39,1.13,12,12,0,0,1-1.5,1l.14.48,6.29,20.94,8.27-9.89,12.34,3.64L63,68.55,62.79,68A5.3,5.3,0,0,0,62,69.15a11.77,11.77,0,0,1-4.39,5"/><path class="cls-1" d="M57.1,57.22A27,27,0,0,1,11,38,27,27,0,1,1,57.1,57.22ZM76,41.61a8.75,8.75,0,0,0-1.17-4.38,8.83,8.83,0,0,1-.75-7A8.82,8.82,0,0,0,70.42,20.1a8.68,8.68,0,0,1-2.59-2.53,8.83,8.83,0,0,1-1.34-3.36,8.81,8.81,0,0,0-2.72-5A8.64,8.64,0,0,0,58.6,7a8.85,8.85,0,0,1-3.46-1A8.93,8.93,0,0,1,52.4,3.61,8.71,8.71,0,0,0,42.07.9a8.6,8.6,0,0,1-3.41.7A8.69,8.69,0,0,1,35,.8a8.71,8.71,0,0,0-10.4,2.42A8.7,8.7,0,0,1,21.81,5.5a8.66,8.66,0,0,1-3.48.93,8.75,8.75,0,0,0-8.09,7,8.73,8.73,0,0,1-1.43,3.32,8.9,8.9,0,0,1-2.65,2.46,8.77,8.77,0,0,0-4.27,7.54,9.19,9.19,0,0,0,.34,2.43,8.83,8.83,0,0,1,.35,2.44,8.85,8.85,0,0,1-1.29,4.59A8.82,8.82,0,0,0,2.43,46.88a8.79,8.79,0,0,1,2.41,6.66,5.72,5.72,0,0,0,0,.59,8.76,8.76,0,0,0,6,8.31,8.82,8.82,0,0,1,3.11,1.84A8.6,8.6,0,0,1,16,67.22a8.76,8.76,0,0,0,8,5.23,8.36,8.36,0,0,0,1.4-.12,9.3,9.3,0,0,1,1.39-.11,8.7,8.7,0,0,1,5.43,1.91,8.71,8.71,0,0,0,10.67.15,8.7,8.7,0,0,1,5.24-1.76,8.91,8.91,0,0,1,1.63.15,8.36,8.36,0,0,0,1.64.16,8.73,8.73,0,0,0,7.88-5,8.79,8.79,0,0,1,5.34-4.63,8.77,8.77,0,0,0,6.2-8.39c0-.12,0-.23,0-.35s0-.23,0-.35a8.81,8.81,0,0,1,2.6-6.24A8.8,8.8,0,0,0,76,41.61"/><path class="cls-1" d="M35,51.76a4,4,0,0,1-2.52-.89l-10-8.14a4,4,0,0,1-.58-5.64,4,4,0,0,1,5.61-.58l7.05,5.75L49.38,26A4,4,0,0,1,55,25.79a4,4,0,0,1,.24,5.67L38,50.46A4,4,0,0,1,35,51.76"/></g></g></svg>